<?xml version="1.0" encoding="UTF-8" standalone="no"?>
<!-- Created with Inkscape (http://www.inkscape.org/) -->

<svg
   xmlns:dc="http://purl.org/dc/elements/1.1/"
   xmlns:cc="http://creativecommons.org/ns#"
   xmlns:rdf="http://www.w3.org/1999/02/22-rdf-syntax-ns#"
   xmlns:svg="http://www.w3.org/2000/svg"
   xmlns="http://www.w3.org/2000/svg"
   xmlns:sodipodi="http://sodipodi.sourceforge.net/DTD/sodipodi-0.dtd"
   xmlns:inkscape="http://www.inkscape.org/namespaces/inkscape"
   width="48px"
   height="48px"
   id="svg2985"
   version="1.1"
   inkscape:version="0.48.4 r9939"
   sodipodi:docname="Nuevo documento 2">
  <defs
     id="defs2987" />
  <sodipodi:namedview
     id="base"
     pagecolor="#ffffff"
     bordercolor="#666666"
     borderopacity="1.0"
     inkscape:pageopacity="0.0"
     inkscape:pageshadow="2"
     inkscape:zoom="9.8994949"
     inkscape:cx="6.8516621"
     inkscape:cy="23.338464"
     inkscape:current-layer="layer1"
     showgrid="true"
     inkscape:grid-bbox="true"
     inkscape:document-units="px"
     inkscape:window-width="1366"
     inkscape:window-height="744"
     inkscape:window-x="0"
     inkscape:window-y="24"
     inkscape:window-maximized="1" />
  <metadata
     id="metadata2990">
    <rdf:RDF>
      <cc:Work
         rdf:about="">
        <dc:format>image/svg+xml</dc:format>
        <dc:type
           rdf:resource="http://purl.org/dc/dcmitype/StillImage" />
        <dc:title></dc:title>
      </cc:Work>
    </rdf:RDF>
  </metadata>
  <g
     id="layer1"
     inkscape:label="Layer 1"
     inkscape:groupmode="layer">
    <path
       style="fill:#ffffff;fill-opacity:1;stroke:#000000;stroke-width:2.5999999;stroke-miterlimit:4;stroke-opacity:1;stroke-dasharray:none"
       id="path2995"
       d="m 37.150059,1.6963155 c -0.332464,0.03689 -0.664109,0.073187 -0.993053,0.1351338 -0.635562,0.1220244 -1.275877,0.2066407 -1.91778,0.2866143 -0.630542,0.065929 -1.260162,0.1400681 -1.890706,0.2058213 -0.524386,0.038968 -1.047353,0.093453 -1.57226,0.1257915 -0.631792,0.058794 -1.264799,0.099072 -1.898775,0.1237933 -0.455034,0.034441 -0.908971,0.079174 -1.362197,0.1317435 -0.581916,0.068283 -1.153771,0.194598 -1.729073,0.3016326 -0.725407,0.117869 -1.431553,0.3199899 -2.129321,0.5466713 C 23.18928,3.7181038 22.735776,3.9182503 22.287299,4.1284476 21.818315,4.3674988 21.390017,4.673647 20.95709,4.9705845 20.376808,5.369485 19.841097,5.8276366 19.33691,6.318044 c -0.526447,0.5246292 -0.973897,1.1171182 -1.374891,1.7408796 -0.407243,0.6333119 -0.755781,1.2966092 -0.999315,2.0092334 -0.215785,0.74587 -0.232739,1.527482 -0.25189,2.298035 -0.03153,0.924916 0.05971,1.846853 0.19827,2.759923 0.123115,0.656423 0.219265,1.320734 0.389484,1.967482 0.09052,0.343934 0.184264,0.609099 0.29589,0.94544 0.27835,0.844501 0.707156,1.623961 1.13191,2.400894 0.387738,0.748007 0.884436,1.424148 1.430947,2.061907 0.640135,0.697322 1.330777,1.343706 1.968206,2.044036 0.681229,0.752285 1.31992,1.541697 1.93045,2.352028 0.603466,0.757075 1.054082,1.602814 1.416734,2.496129 0.308827,0.846029 0.532089,1.719429 0.680376,2.606948 0.156734,0.95766 0.12516,1.922153 -0.0047,2.879376 -0.145178,0.843718 -0.322891,1.692444 -0.620144,2.497902 -0.06296,0.170611 -0.13757,0.336697 -0.206356,0.505046 -0.421275,0.990992 -0.963762,1.924139 -1.515949,2.846519 -0.439141,0.72601 -0.978422,1.384262 -1.560947,1.998728 -0.388096,0.400013 -0.795967,0.784439 -1.254901,1.103126 -0.296606,0.205965 -0.468543,0.291138 -0.791938,0.472548 -0.817381,0.402709 -1.63357,0.8089 -2.45701,1.19921 -0.718374,0.331515 -1.439621,0.657736 -2.166277,0.970795 -0.308037,0.127221 -0.628237,0.226217 -0.951717,0.306121 -0.203907,0.04709 -0.413341,0.05398 -0.621626,0.05771 -0.324883,0.002 -0.649777,6.45e-4 -0.974663,4e-5 -0.358677,-5.94e-4 -0.717355,-9.13e-4 -1.076034,-9.68e-4 -0.204262,4e-6 -0.408524,8.6e-5 -0.612786,1.57e-4 0,0 0.08032,-0.05836 0.08032,-0.05836 l 0,0 c 0.204062,8.1e-5 0.408124,1.82e-4 0.612186,2.83e-4 0.358755,1.45e-4 0.717511,9.1e-5 1.076265,8.19e-4 0.325045,5.83e-4 0.650104,0.0022 0.975142,-6.45e-4 0.207883,-0.0042 0.416886,-0.01157 0.620229,-0.05945 0.322447,-0.08047 0.641929,-0.178443 0.948954,-0.306008 0.725881,-0.312631 1.446577,-0.637916 2.163989,-0.969421 0.823587,-0.390715 1.640253,-0.79665 2.457471,-1.200374 0.706576,-0.388553 1.335988,-0.885794 1.88415,-1.478758 0.583031,-0.613969 1.122763,-1.271932 1.562884,-1.997292 0.552537,-0.921992 1.095538,-1.8547 1.517028,-2.845442 0.0688,-0.168111 0.143434,-0.333948 0.206387,-0.504333 0.297367,-0.804828 0.475445,-1.653048 0.620602,-2.496207 0.130186,-0.956265 0.162112,-1.919784 0.0055,-2.876553 C 25.921141,31.158672 25.698205,30.28589 25.389733,29.440455 25.027743,28.547747 24.577987,27.702477 23.974907,26.946072 23.36459,26.13591 22.725928,25.34687 22.044738,24.5949 c -0.637767,-0.700193 -1.328632,-1.346584 -1.968895,-2.043954 -0.546967,-0.638231 -1.044591,-1.314607 -1.432375,-2.063374 -0.424749,-0.777594 -0.853414,-1.557845 -1.131854,-2.402889 -0.110179,-0.332409 -0.206674,-0.606595 -0.29615,-0.946296 -0.170397,-0.646927 -0.266466,-1.3115 -0.389906,-1.96808 -0.138905,-0.913406 -0.231099,-1.835597 -0.199936,-2.760937 0.01866,-0.77121 0.0353,-1.55349 0.249881,-2.300304 0.243025,-0.7135152 0.59139,-1.3774844 0.998753,-2.0115321 0.400207,-0.6245332 0.847703,-1.2171974 1.37354,-1.7426903 0.503834,-0.4909045 1.039328,-0.9494819 1.619357,-1.3489074 0.486154,-0.3332737 0.969283,-0.6724414 1.497129,-0.938696 0.448011,-0.210024 0.901552,-0.4089386 1.368862,-0.5728119 C 24.431283,3.2683098 25.137711,3.0666788 25.86327,2.9487112 26.439026,2.8410784 27.011488,2.7149984 27.593962,2.6467 28.047067,2.593931 28.50097,2.549518 28.955975,2.5160243 c 0.633938,-0.024567 1.266869,-0.065148 1.898612,-0.1239533 0.524904,-0.032875 1.04793,-0.087269 1.572345,-0.1263605 0.629983,-0.065699 1.259158,-0.1386933 1.889102,-0.2048711 0.642591,-0.080221 1.283454,-0.1660006 1.919603,-0.2887251 0.329508,-0.061442 0.661677,-0.097534 0.994464,-0.1356569 0,0 -0.07998,0.059858 -0.07998,0.059858 z"
       inkscape:connector-curvature="0" />
    <path
       style="fill:#ff0000;fill-opacity:1;stroke:#ff0000;stroke-width:2.5999999;stroke-miterlimit:4;stroke-opacity:1;stroke-dasharray:none"
       id="path2997"
       d="m 17.912746,17.040957 c -0.04608,-0.351972 0.133145,-0.6615 0.331319,-0.936169 0.262488,-0.347576 0.607158,-0.609463 0.949218,-0.872139 0.29469,-0.21865 0.593344,-0.430767 0.897862,-0.635417 0.258655,-0.199252 0.538709,-0.367088 0.805217,-0.554893 0.32405,-0.258659 0.674045,-0.480962 1.023817,-0.702489 0.484323,-0.284274 0.96525,-0.576361 1.459796,-0.842883 0.311526,-0.168774 0.63337,-0.322459 0.963212,-0.452314 0.300065,-0.12517 0.612099,-0.22172 0.925866,-0.306032 0.437205,-0.10322 0.888441,-0.115545 1.335455,-0.127398 0.705505,-0.03247 1.402291,0.09748 2.096482,0.202575 0.766553,0.134162 1.525415,0.303899 2.278604,0.498746 0.71691,0.231954 1.436303,0.455508 2.158137,0.671721 0.624581,0.16794 1.220516,0.416887 1.800908,0.698809 0.423608,0.203537 0.781803,0.511009 1.140008,0.809766 0.517927,0.44555 1.022962,0.90562 1.541642,1.350278 0.737159,0.693205 1.528931,1.320407 2.363053,1.891834 0.562772,0.393067 1.17535,0.701138 1.796199,0.989359 0.217437,0.09686 0.448596,0.165604 0.687895,0.146114 0.0323,-0.005 0.06465,-0.0098 0.0969,-0.0151 0.09059,-0.01493 0.18029,-0.03647 0.264116,-0.07562 0.02427,-0.01134 0.04646,-0.02668 0.0695,-0.04034 0.0058,-0.0034 -0.01181,0.0064 -0.01771,0.0096 0.169688,-0.09112 0.122501,-0.06473 0.268629,-0.158661 0,0 0.09311,-0.03628 0.09311,-0.03628 l 0,0 c -0.01663,0.0108 -0.354632,0.227477 -0.26842,0.15905 -0.187152,0.108732 -0.364376,0.205545 -0.586381,0.216513 -0.24044,0.01599 -0.47179,-0.05219 -0.689725,-0.151001 -0.619649,-0.29024 -1.23128,-0.599666 -1.793537,-0.99298 C 39.069717,17.21358 38.277667,16.586061 37.539164,15.893696 37.020003,15.449343 36.51441,14.989635 35.995747,14.544681 35.637853,14.246695 35.280068,13.940092 34.857169,13.736809 34.277541,13.454927 33.682423,13.206036 33.058466,13.0384 32.336717,12.822068 31.61736,12.598529 30.900324,12.367126 30.147508,12.172414 29.38904,12.00247 28.622785,11.868842 c -0.69439,-0.104978 -1.39147,-0.233485 -2.097115,-0.200013 -0.446891,0.01241 -0.898046,0.0251 -1.334841,0.129842 -0.313578,0.08522 -0.625558,0.181584 -0.925536,0.307188 -0.328976,0.130852 -0.650676,0.283277 -0.961542,0.45247 -0.437682,0.236376 -0.865154,0.491874 -1.292498,0.746132 -0.349425,0.221296 -0.699628,0.442718 -1.022984,0.701628 -0.266049,0.188593 -0.547064,0.355151 -0.805281,0.555167 -0.304519,0.204698 -0.603496,0.416347 -0.898289,0.63492 -0.341924,0.262332 -0.687325,0.522832 -0.950433,0.869569 -0.197774,0.271333 -0.377679,0.577771 -0.333914,0.926964 0,0 -0.08761,0.04825 -0.08761,0.04825 z"
       inkscape:connector-curvature="0" />
  </g>
</svg>
